HIERARCHY
ROOT Hips
{
  OFFSET -0.467749 0.00 -2.5523
  CHANNELS 6 Xposition Yposition Zposition Zrotation Xrotation Yrotation
  JOINT LHipJoint
  {
    OFFSET 0 0 0
    CHANNELS 3 Zrotation Xrotation Yrotation
    JOINT LeftUpLeg
    {
      OFFSET 1.8 -1.4 0.085
      CHANNELS 3 Zrotation Xrotation Yrotation
      JOINT LeftLeg
      {
        OFFSET 2.215 -6 0
        CHANNELS 3 Zrotation Xrotation Yrotation
        JOINT LeftFoot
        {
          OFFSET 2.5 -6.9 0
          CHANNELS 3 Zrotation Xrotation Yrotation
          JOINT LeftToeBase
          {
            OFFSET 0.2 -0.5 1.95
            CHANNELS 3 Zrotation Xrotation Yrotation
            End Site
            {
              OFFSET 0 0 1
            }
          }
        }
      }
    }
  }
  JOINT RHipJoint
  {
    OFFSET 0 0 0
    CHANNELS 3 Zrotation Xrotation Yrotation
    JOINT RightUpLeg
    {
      OFFSET -1.8 -1.4 0.085
      CHANNELS 3 Zrotation Xrotation Yrotation
      JOINT RightLeg
      {
        OFFSET -2.215 -6 0
        CHANNELS 3 Zrotation Xrotation Yrotation
        JOINT RightFoot
        {
          OFFSET -2.5 -6.9 0
          CHANNELS 3 Zrotation Xrotation Yrotation
          JOINT RightToeBase
          {
            OFFSET -0.2 -0.5 1.95
            CHANNELS 3 Zrotation Xrotation Yrotation
            End Site
            {
              OFFSET 0 0 1
            }
          }
        }
      }
    }
  }
  JOINT LowerBack
  {
    OFFSET 0 0 0
    CHANNELS 3 Zrotation Xrotation Yrotation
    JOINT Spine
    {
      OFFSET -0.087 1.94 -0.2889
      CHANNELS 3 Zrotation Xrotation Yrotation
      JOINT Spine1
      {
        OFFSET 0 1.95 0.06
        CHANNELS 3 Zrotation Xrotation Yrotation
        JOINT Neck
        {
          OFFSET 0 0 0
          CHANNELS 3 Zrotation Xrotation Yrotation
          JOINT Neck1
          {
            OFFSET 0 1.6 0.34
            CHANNELS 3 Zrotation Xrotation Yrotation
            JOINT Head
            {
              OFFSET 0 1.667 -0.24
              CHANNELS 3 Zrotation Xrotation Yrotation
              End Site
              {
                OFFSET 0 1.686 -0.12
              }
            }
          }
        }
        JOINT LeftShoulder
        {
          OFFSET 0 0 0
          CHANNELS 3 Zrotation Xrotation Yrotation
          JOINT LeftArm
          {
            OFFSET 2.7 1.55 -0.73
            CHANNELS 3 Zrotation Xrotation Yrotation
            JOINT LeftForeArm
            {
              OFFSET 5.45 0 0
              CHANNELS 3 Zrotation Xrotation Yrotation
              JOINT LeftHand
              {
                OFFSET 3.45 0 0
                CHANNELS 3 Zrotation Xrotation Yrotation
                JOINT LeftFingerBase
                {
                  OFFSET 0 0 0
                  CHANNELS 3 Zrotation Xrotation Yrotation
                  JOINT LeftHandIndex1
                  {
                    OFFSET 0.75 0 0
                    CHANNELS 3 Zrotation Xrotation Yrotation
                    End Site
                    {
                      OFFSET 0.6 0 0
                    }
                  }
                }
                JOINT LThumb
                {
                  OFFSET 0 0 0
                  CHANNELS 3 Zrotation Xrotation Yrotation
                  End Site
                  {
                    OFFSET 0.59 0 0.59
                  }
                }
              }
            }
          }
        }
        JOINT RightShoulder
        {
          OFFSET 0 0 0
          CHANNELS 3 Zrotation Xrotation Yrotation
          JOINT RightArm
          {
            OFFSET -2.7 1.55 -0.73
            CHANNELS 3 Zrotation Xrotation Yrotation
            JOINT RightForeArm
            {
              OFFSET -5.45 0 0
              CHANNELS 3 Zrotation Xrotation Yrotation
              JOINT RightHand
              {
                OFFSET -3.45 0 0
                CHANNELS 3 Zrotation Xrotation Yrotation
                JOINT RightFingerBase
                {
                  OFFSET 0 0 0
                  CHANNELS 3 Zrotation Xrotation Yrotation
                  JOINT RightHandIndex1
                  {
                    OFFSET -0.75 0 0
                    CHANNELS 3 Zrotation Xrotation Yrotation
                    End Site
                    {
                      OFFSET -0.6 0 0
                    }
                  }
                }
                JOINT RThumb
                {
                  OFFSET 0 0 0
                  CHANNELS 3 Zrotation Xrotation Yrotation
                  End Site
                  {
                    OFFSET -0.59 0 0.59
                  }
                }
              }
            }
          }
        }
      }
    }
  }
}
MOTION
Frames:	8
Frame Time:	0.00833333
-11.9446 18.1329 -9.57139 7.80143 -2.58514 -141.668 1.39149e-015 2.38542e-015 -1.59028e-014 -17.8917 -18.5604 -0.783971 -6.70511 25.287 5.26219 3.47863 -16.4516 10.2082 1.59028e-015 -9.06458e-014 -1.08139e-013 1.39149e-015 2.38542e-015 -1.59028e-014 -1.1407 -11.2316 -6.5534 2.85595 0.347844 -11.462 23.1863 22.9474 -28.3637 -1.59028e-015 0 -1.59028e-015 1.39149e-015 2.38542e-015 -1.59028e-014 5.33685 5.6061 0.861896 -7.75293 10.4706 3.13446 4.21841 -18.253 -1.91899 5.17428 18.675 -3.25049 1.98397 19.3438 -2.21898 -22.9788 4.26114 -10.9802 -71.4036 -24.4747 -43.2241 -150.125 48.1958 179.999 -10.596 2.32657 -21.9986 6.95837e-008 -4.19936e-007 2.80002e-008 -3.18055e-015 6.36111e-015 -0 -1.59028e-015 0 7.95139e-016 23.5675 4.27875 10.7691 57.3118 -27.3893 29.0486 9.30035 8.4992 11.8429 0.44251 -0.660465 -6.84642 -2.9842e-006 3.27887e-006 -1.27613e-006 -3.99018e-008 2.69097e-006 -9.94233e-007 3.18055e-015 -3.18055e-015 1.59028e-015 
-12.034 18.1433 -9.56358 7.90923 -2.66429 -142.703 -5.96354e-016 -2.38542e-015 1.90833e-014 -17.9319 -18.1316 -0.547255 -6.78988 24.7135 5.27677 3.76089 -16.7605 10.881 -1.59028e-015 -8.5875e-014 -1.08139e-013 -5.96354e-016 -2.38542e-015 1.90833e-014 -1.1375 -10.4087 -6.85228 3.1548 0.41244 -12.1584 22.2973 22.5326 -29.1571 7.95139e-016 3.18055e-015 7.95139e-016 -5.96354e-016 -2.38542e-015 1.90833e-014 5.34528 5.32621 0.834327 -7.54124 10.3594 3.02666 4.28529 -17.9557 -2.07533 5.31204 18.9672 -3.44125 2.25329 19.4745 -2.69369 -23.0002 4.24273 -10.9086 -71.5767 -24.3339 -43.1131 -149.502 46.3793 179.998 -8.0303 1.88618 -21.8776 6.95837e-008 -4.19936e-007 2.80002e-008 -1.59028e-015 -6.36111e-015 1.59028e-015 1.59028e-015 0 7.95139e-016 24.1665 4.19512 10.2329 56.8287 -27.8192 27.9686 11.0539 -2.38796 12.2285 3.86328 3.13003 6.36387 -2.9842e-006 3.27887e-006 -1.27613e-006 -3.99018e-008 2.69097e-006 -9.94233e-007 3.18055e-015 6.36111e-015 3.18055e-015 
-12.1226 18.1469 -9.54106 7.99712 -2.70175 -143.764 2.98177e-015 1.19271e-015 -3.18055e-015 -18.026 -17.8155 -0.345218 -6.87871 24.291 5.46783 4.10659 -17.0747 11.4653 -1.59028e-015 -7.95139e-014 -1.20861e-013 2.98177e-015 1.19271e-015 -3.18055e-015 -0.851887 -9.52625 -7.03587 3.09449 0.815007 -12.0839 21.8756 20.7041 -30.7272 7.95139e-016 6.36111e-015 -1.59028e-015 2.98177e-015 1.19271e-015 -3.18055e-015 5.33425 5.07665 0.800082 -7.328 10.3222 2.91796 4.38111 -17.7302 -2.22408 5.4759 19.1869 -3.63148 2.49108 19.6418 -3.11286 -22.9762 4.20577 -10.7953 -71.7544 -24.2108 -42.9912 -148.899 45.0021 179.998 -4.70748 1.24631 -21.6447 6.95837e-008 -4.19936e-007 2.80002e-008 4.6346e-031 -9.54166e-015 2.78299e-015 1.59028e-015 -3.18055e-015 3.97569e-016 24.7323 4.10173 9.69968 56.3641 -28.2289 26.9468 13.8043 -16.4985 13.5094 5.99903 7.45216 24.1947 -2.9842e-006 3.27887e-006 -1.27613e-006 -3.99018e-008 2.69097e-006 -9.94233e-007 -9.54166e-015 -1.59028e-015 9.54166e-015 
-12.2094 18.1479 -9.51563 8.09992 -2.74941 -144.92 -1.98785e-016 1.59028e-015 -3.18055e-015 -18.127 -17.5571 -0.162817 -6.96559 23.883 5.78135 4.45343 -17.3899 12.0247 4.77083e-015 -8.11041e-014 -1.20861e-013 -1.98785e-016 1.59028e-015 -3.18055e-015 -0.46356 -8.69201 -7.14754 2.93058 1.33506 -11.7142 21.6993 18.732 -32.4606 -2.38542e-015 3.18055e-015 3.18055e-015 -1.98785e-016 1.59028e-015 -3.18055e-015 5.35215 4.80413 0.781322 -7.16863 10.3229 2.84095 4.49479 -17.5317 -2.35882 5.65295 19.3792 -3.81195 2.66559 19.8004 -3.45541 -22.9359 4.15546 -10.6441 -71.8991 -24.1163 -42.8284 -148.695 45.1708 179.998 -1.66652 0.66674 -21.5343 6.95837e-008 -4.19936e-007 2.80002e-008 -1.59028e-015 3.18055e-015 -3.97569e-016 1.59028e-015 3.18055e-015 -1.19271e-015 25.2563 4.00026 9.17252 55.9158 -28.6054 25.9725 17.141 -29.4594 15.6318 5.74984 9.68025 40.9976 -2.9842e-006 3.27887e-006 -1.27613e-006 -3.99018e-008 2.69097e-006 -9.94233e-007 -8.82781e-032 7.95139e-016 6.36111e-015 
-12.2938 18.1502 -9.49849 8.24832 -2.86036 -146.238 -1.98785e-016 -1.19271e-015 9.54166e-015 -18.191 -17.3067 0.0118775 -7.04314 23.36 6.17065 4.74188 -17.7018 12.6192 1.59028e-015 -8.26944e-014 -1.27222e-013 -1.98785e-016 -1.19271e-015 9.54166e-015 -0.143441 -8.01233 -7.22626 2.91795 1.76063 -11.5004 21.7513 17.765 -33.7787 3.18055e-015 -3.18055e-015 3.18055e-015 -1.98785e-016 -1.19271e-015 9.54166e-015 5.44813 4.45603 0.799864 -7.11892 10.3276 2.82824 4.61751 -17.317 -2.47358 5.83284 19.5875 -3.97472 2.73964 19.9044 -3.69889 -22.9065 4.09671 -10.4584 -71.9744 -24.0599 -42.5963 -149.269 48.0053 179.997 0.0704465 0.405637 -21.7866 6.95837e-008 -4.19936e-007 2.80002e-008 1.10348e-032 -3.18055e-015 1.98785e-016 -7.95139e-016 0 -7.95139e-016 25.7305 3.89228 8.65449 55.483 -28.9364 25.036 19.6018 -37.1768 17.3936 4.86446 9.81363 50.717 -2.9842e-006 3.27887e-006 -1.27613e-006 -3.99018e-008 2.69097e-006 -9.94233e-007 3.97569e-016 6.4605e-016 1.59028e-015 
-12.3764 18.1521 -9.48546 8.45473 -3.03757 -147.725 -1.98785e-016 3.97569e-016 -0 -18.2314 -17.1222 0.143877 -7.08984 22.7711 6.71923 4.96723 -18.0185 13.218 4.77083e-015 -8.26944e-014 -1.145e-013 -1.98785e-016 3.97569e-016 -0 0.137819 -7.51017 -7.24102 2.99625 2.15944 -11.2936 22.3463 17.55 -34.9904 6.36111e-015 9.54166e-015 3.18055e-015 -1.98785e-016 3.97569e-016 -0 5.65044 4.0182 0.860537 -7.20549 10.3571 2.89304 4.7726 -17.0929 -2.57415 6.04238 19.8044 -4.13255 2.63629 19.9228 -3.82053 -22.8728 4.02667 -10.236 -71.9817 -24.0292 -42.3 -150.732 54.2057 179.997 0.453886 0.493 -22.6546 6.95837e-008 -4.19936e-007 2.80002e-008 -1.09332e-015 -3.18055e-015 6.4605e-016 -1.98785e-016 0 7.45443e-016 26.162 3.77661 8.14466 55.0748 -29.2402 24.1542 19.9809 -39.3822 17.5635 4.60779 9.62473 52.7905 -2.9842e-006 3.27887e-006 -1.27613e-006 -3.99018e-008 2.69097e-006 -9.94233e-007 5.51738e-033 -1.98785e-016 1.59028e-015 
-12.4571 18.153 -9.47424 8.68225 -3.25385 -149.339 3.37934e-015 -3.97569e-016 -0 -18.2582 -16.9788 0.258431 -7.11736 22.1409 7.37378 5.16602 -18.3348 13.8166 4.77083e-015 -8.26944e-014 -1.145e-013 3.37934e-015 -3.97569e-016 -0 0.440395 -7.10732 -7.19817 3.07918 2.58558 -10.9839 23.3084 17.6511 -36.1355 1.59028e-015 0 3.18055e-015 3.37934e-015 -3.97569e-016 -0 5.90919 3.53154 0.947237 -7.37476 10.411 3.00608 4.94352 -16.8766 -2.65874 6.26288 20.0132 -4.27821 2.44174 19.9089 -3.85188 -22.8332 3.94508 -9.97709 -71.9392 -24.0291 -41.9497 -152.78 62.5464 179.995 0.0840395 0.760204 -23.7819 6.95837e-008 -4.19936e-007 2.80002e-008 -1.59028e-015 0 -5.96354e-016 -3.97569e-016 0 -5.96354e-016 26.5483 3.65351 7.64224 54.6889 -29.5079 23.3197 19.0696 -38.6806 16.6715 4.74248 9.52309 50.7884 -2.9842e-006 3.27887e-006 -1.27613e-006 -3.99018e-008 2.69097e-006 -9.94233e-007 -1.59028e-015 -1.59028e-015 -0 
-12.5349 18.1543 -9.4672 8.88756 -3.48715 -151.041 1.78906e-015 1.19271e-015 -0 -18.2668 -16.8015 0.408429 -7.15245 21.4406 8.01235 5.37079 -18.6377 14.4417 -6.36111e-015 -7.95139e-014 -1.145e-013 1.78906e-015 1.19271e-015 -0 0.779664 -6.7226 -7.13248 3.16441 3.01283 -10.6336 24.2639 17.9673 -36.944 1.59028e-015 -3.18055e-015 -0 1.78906e-015 1.19271e-015 -0 6.15983 3.04053 1.04317 -7.56061 10.4691 3.13254 5.09478 -16.6746 -2.72044 6.45379 20.209 -4.39377 2.2949 19.9327 -3.83857 -22.8007 3.85443 -9.68415 -71.8587 -24.0745 -41.547 -155.078 71.4256 179.992 -0.548402 1.05467 -24.653 6.95837e-008 -4.19936e-007 2.80002e-008 -1.59028e-015 0 1.59028e-015 1.59028e-015 9.54166e-015 7.95139e-016 26.8806 3.52438 7.14757 54.3187 -29.715 22.5124 18.0513 -37.3903 15.6915 4.78546 9.31338 47.8237 -2.9842e-006 3.27887e-006 -1.27613e-006 -3.99018e-008 2.69097e-006 -9.94233e-007 1.32417e-031 -1.19271e-015 6.36111e-015 
